<?xml version="1.0" encoding="iso-8859-1"?>
<!-- Generator: Adobe Illustrator 17.1.0, SVG Export Plug-In . SVG Version: 6.00 Build 0)  -->
<!DOCTYPE svg PUBLIC "-//W3C//DTD SVG 1.1//EN" "http://www.w3.org/Graphics/SVG/1.1/DTD/svg11.dtd">
<svg version="1.1" id="Capa_1" xmlns="http://www.w3.org/2000/svg" xmlns:xlink="http://www.w3.org/1999/xlink" x="0px" y="0px"
	 viewBox="0 0 203.247 203.247" style="enable-background:new 0 0 203.247 203.247;" xml:space="preserve">
<path d="M43.952,203.247c-1.31,0-2.41-1.02-2.493-2.345L31.006,33.227c-0.042-0.661,0.182-1.312,0.621-1.81
	c0.439-0.497,1.057-0.8,1.719-0.841l35.489-2.213l3.092-26.158c0.162-1.37,1.403-2.349,2.776-2.188l95.336,11.27
	c0.659,0.077,1.259,0.414,1.669,0.935c0.411,0.521,0.598,1.183,0.52,1.842l-19.722,166.838c-0.162,1.371-1.399,2.354-2.776,2.188
	l-8.246-0.975l0.779,12.503c0.042,0.661-0.182,1.313-0.621,1.81c-0.439,0.497-1.057,0.8-1.719,0.841l-95.814,5.974
	C44.057,203.245,44.005,203.247,43.952,203.247z M36.152,35.412l10.143,162.685l90.824-5.663L126.975,29.749l-55.748,3.477
	c-0.019,0.001-0.037,0.002-0.056,0.003L36.152,35.412z M141.168,177.043l6.667,0.788l19.135-161.872L76.599,5.276l-2.692,22.771
	l55.252-3.444c0.008-0.001,0.017-0.001,0.025-0.001c1.354-0.082,2.541,0.972,2.626,2.341L141.168,177.043z M55.757,188.985
	c-0.607,0-1.196-0.222-1.654-0.626c-0.497-0.438-0.8-1.057-0.841-1.719l-1.597-25.617c-0.086-1.378,0.961-2.564,2.339-2.65
	l29.941-1.867c0.666-0.039,1.313,0.183,1.81,0.621s0.8,1.057,0.841,1.719l1.597,25.617c0.086,1.378-0.961,2.564-2.339,2.65
	l-29.942,1.867C55.86,188.983,55.808,188.985,55.757,188.985z M56.811,163.208l1.286,20.627l24.951-1.557l-1.286-20.627
	L56.811,163.208z M53.493,152.722c-1.31,0-2.41-1.02-2.493-2.345l-3.63-58.221c-0.086-1.378,0.961-2.564,2.339-2.65
	c1.384-0.064,2.565,0.962,2.651,2.34l3.63,58.221c0.086,1.378-0.961,2.564-2.339,2.65C53.598,152.72,53.546,152.722,53.493,152.722z
	 M68.465,151.789c-1.31,0-2.41-1.02-2.493-2.345l-4.75-76.186c-0.086-1.378,0.961-2.564,2.339-2.65
	c1.393-0.078,2.565,0.962,2.651,2.34l4.75,76.186c0.086,1.378-0.961,2.564-2.339,2.65C68.57,151.787,68.517,151.789,68.465,151.789z
	 M83.435,150.855c-1.31,0-2.41-1.02-2.493-2.345l-3.07-49.238c-0.086-1.378,0.961-2.564,2.339-2.65
	c1.389-0.077,2.565,0.962,2.651,2.34l3.07,49.238c0.086,1.378-0.961,2.564-2.339,2.65C83.54,150.853,83.488,150.855,83.435,150.855z
	 M47.209,51.918c-1.31,0-2.41-1.02-2.493-2.345c-0.086-1.378,0.961-2.564,2.339-2.65l69.864-4.355
	c1.387-0.088,2.565,0.962,2.651,2.34c0.086,1.378-0.961,2.564-2.339,2.65l-69.864,4.355C47.314,51.916,47.261,51.918,47.209,51.918z
	"/>
<g>
</g>
<g>
</g>
<g>
</g>
<g>
</g>
<g>
</g>
<g>
</g>
<g>
</g>
<g>
</g>
<g>
</g>
<g>
</g>
<g>
</g>
<g>
</g>
<g>
</g>
<g>
</g>
<g>
</g>
</svg>
